<?xml version="1.0" encoding="UTF-8" standalone="no"?>
<!-- Created with Inkscape (http://www.inkscape.org/) -->

<svg
   xmlns:dc="http://purl.org/dc/elements/1.1/"
   xmlns:cc="http://creativecommons.org/ns#"
   xmlns:rdf="http://www.w3.org/1999/02/22-rdf-syntax-ns#"
   xmlns:svg="http://www.w3.org/2000/svg"
   xmlns="http://www.w3.org/2000/svg"
   xmlns:xlink="http://www.w3.org/1999/xlink"
   xmlns:sodipodi="http://sodipodi.sourceforge.net/DTD/sodipodi-0.dtd"
   xmlns:inkscape="http://www.inkscape.org/namespaces/inkscape"
   width="126"
   height="117.51075"
   id="svg2"
   version="1.1"
   inkscape:version="0.48.0 r9654"
   sodipodi:docname="New document 1">
  <defs
     id="defs4">
    <linearGradient
       id="linearGradient3779">
      <stop
         style="stop-color:#ffff00;stop-opacity:1;"
         offset="0"
         id="stop3781" />
      <stop
         id="stop3787"
         offset="0.5"
         style="stop-color:#80ff00;stop-opacity:1;" />
      <stop
         style="stop-color:#00ff00;stop-opacity:1;"
         offset="1"
         id="stop3969" />
    </linearGradient>
    <radialGradient
       inkscape:collect="always"
       xlink:href="#linearGradient3779"
       id="radialGradient3785"
       cx="168.25"
       cy="437.87946"
       fx="168.25"
       fy="437.87946"
       r="59.75"
       gradientTransform="matrix(1.500112,0.00857285,-0.00788,1.3788802,308.55452,-256.85591)"
       gradientUnits="userSpaceOnUse" />
  </defs>
  <sodipodi:namedview
     id="base"
     pagecolor="#ffffff"
     bordercolor="#666666"
     borderopacity="1.0"
     inkscape:pageopacity="0.0"
     inkscape:pageshadow="2"
     inkscape:zoom="5.6568542"
     inkscape:cx="81.760993"
     inkscape:cy="66.064427"
     inkscape:document-units="px"
     inkscape:current-layer="layer1"
     showgrid="false"
     fit-margin-top="5"
     fit-margin-left="5"
     fit-margin-right="0"
     fit-margin-bottom="5"
     inkscape:window-width="2054"
     inkscape:window-height="1413"
     inkscape:window-x="241"
     inkscape:window-y="-9"
     inkscape:window-maximized="1" />
  <metadata
     id="metadata7">
    <rdf:RDF>
      <cc:Work
         rdf:about="">
        <dc:format>image/svg+xml</dc:format>
        <dc:type
           rdf:resource="http://purl.org/dc/dcmitype/StillImage" />
        <dc:title></dc:title>
      </cc:Work>
    </rdf:RDF>
  </metadata>
  <g
     inkscape:label="Layer 1"
     inkscape:groupmode="layer"
     id="layer1"
     transform="translate(-491.99791,-289.61441)">
    <a
       id="a3761">
      <path
         style="fill:url(#radialGradient3785);fill-opacity:1;fill-rule:evenodd;stroke:#000000;stroke-width:2.5;stroke-linecap:butt;stroke-linejoin:round;stroke-miterlimit:1;stroke-opacity:1;stroke-dasharray:none;marker-start:none"
         d="m 573.24791,295.86533 c -33.59589,-0.18511 -43.28125,27.53125 -43.28125,27.53125 l -17.71875,-25.53125 -14,0 0,102.5 13,0 0,-80.1875 14.4375,20.625 c 0,0 -0.31886,7.17174 -0.125,10.75 0.21599,3.98684 1.82712,50.09433 47.6875,49.3125 39.14422,-0.66733 43.5,-33 43.5,-33 l -13.5,-3 c 0,0 -4.34299,22.58344 -24,24.5 -0.0719,0.007 0,-81.50015 0,-81.50015 0,0 16.46927,0.98837 22,20.50015 0.0229,0.0809 14,-3 14,-3 0,0 -6.26684,-29.30311 -42,-29.5 z m -7,11.99985 c 0.11433,-0.0156 0,70.00015 0,70.00015 l -26,-39 c 0,0 2.41319,-27.78508 26,-31.00015 z"
         id="path2989"
         inkscape:connector-curvature="0"
         sodipodi:nodetypes="scccccccssccccccscccc" />
    </a>
  </g>
</svg>
