<?xml version="1.0" encoding="UTF-8" standalone="no"?>
<!-- Created with Inkscape (http://www.inkscape.org/) -->

<svg
   xmlns:dc="http://purl.org/dc/elements/1.1/"
   xmlns:cc="http://creativecommons.org/ns#"
   xmlns:rdf="http://www.w3.org/1999/02/22-rdf-syntax-ns#"
   xmlns:svg="http://www.w3.org/2000/svg"
   xmlns="http://www.w3.org/2000/svg"
   xmlns:sodipodi="http://sodipodi.sourceforge.net/DTD/sodipodi-0.dtd"
   xmlns:inkscape="http://www.inkscape.org/namespaces/inkscape"
   id="svg2985"
   version="1.1"
   inkscape:version="0.48.0 r9654"
   width="1000"
   height="1000"
   xml:space="preserve"
   sodipodi:docname="Flat.svg"><metadata
     id="metadata2991"><rdf:RDF><cc:Work
         rdf:about=""><dc:format>image/svg+xml</dc:format><dc:type
           rdf:resource="http://purl.org/dc/dcmitype/StillImage" /><dc:title /></cc:Work></rdf:RDF></metadata><defs
     id="defs2989"><clipPath
       clipPathUnits="userSpaceOnUse"
       id="clipPath2999"><path
         d="M 0,800 800,800 800,0 0,0 0,800 z"
         id="path3001" /></clipPath></defs><sodipodi:namedview
     pagecolor="#ffffff"
     bordercolor="#666666"
     borderopacity="1"
     objecttolerance="10"
     gridtolerance="10"
     guidetolerance="10"
     inkscape:pageopacity="0"
     inkscape:pageshadow="2"
     inkscape:window-width="1366"
     inkscape:window-height="706"
     id="namedview2987"
     showgrid="false"
     inkscape:zoom="0.582"
     inkscape:cx="292.14917"
     inkscape:cy="437.32373"
     inkscape:window-x="-8"
     inkscape:window-y="-8"
     inkscape:window-maximized="1"
     inkscape:current-layer="g2993" /><g
     id="g2993"
     inkscape:groupmode="layer"
     inkscape:label="Flat"
     transform="matrix(1.25,0,0,-1.25,0,1000)"><g
       id="g2995"
       transform="translate(0,-3.2688767e-6)"><g
         id="g2997"
         clip-path="url(#clipPath2999)"><g
           id="g3003"
           transform="translate(399.791,566.7441)"><path
             d="m 0,0 216.332,-216.878 -112.481,-0.428 c -10.574,0 -9.838,-14.113 -9.838,-14.113 l 0,-271.159 c 5.56,-22.669 21.812,-9.41 21.812,-9.41 l 272.442,273.297 c 9.836,8.982 0,20.102 0,20.102 L 8.514,161.04 c -8.304,6.021 -6.247,1.797 -6.247,1.797 M 0.562,-0.081 l -216.475,-216.786 112.483,-0.429 c 10.942,0 9.836,-14.113 9.836,-14.113 l 0,-271.16 c -5.558,-22.667 -21.812,-9.408 -21.812,-9.408 l -272.441,273.296 c -9.837,8.982 0,20.102 0,20.102 L -8.056,160.786 c 6.417,5.987 10.273,3.751 10.273,3.751"
             style="fill:#585959;fill-opacity:1;fill-rule:nonzero;stroke:#585959;stroke-width:3;stroke-linecap:round;stroke-linejoin:round;stroke-miterlimit:10;stroke-opacity:1;stroke-dasharray:none"
             id="path3005"
             inkscape:connector-curvature="0" /></g><path
           d="m 416.243,567.46 -27.939,0 0,128.333 27.939,0 0,-128.333 z"
           style="fill:#585959;fill-opacity:1;fill-rule:nonzero;stroke:none"
           id="path3007"
           inkscape:connector-curvature="0" /></g></g></g></svg>